<?xml version="1.0" encoding="UTF-8"?>
<svg id="Layer_2" data-name="Layer 2" xmlns="http://www.w3.org/2000/svg" viewBox="0 0 304.467 287.786">
  <g id="Layer_1-2" data-name="Layer 1">
    <polygon points="0 139.407 19.468 139.407 19.468 79.379 26.282 79.379 26.282 61.608 19.468 61.608 19.468 18.956 27.255 18.956 27.255 1.186 0 1.186 0 139.407"/>
    <path d="M51.589,140.592c6.23,0,11.355-1.875,15.379-5.628,4.022-3.751,6.035-9.114,6.035-16.092V21.721c0-6.976-1.98-12.341-5.938-16.093-3.96-3.751-9.052-5.628-15.281-5.628s-11.389,1.91-15.477,5.726c-4.087,3.82-6.132,9.151-6.132,15.995v97.151c0,6.979,2.011,12.341,6.035,16.092,4.022,3.752,9.15,5.628,15.38,5.628ZM49.643,20.734c0-1.975.647-2.963,1.946-2.963s1.946.987,1.946,2.963v99.125c0,1.974-.651,2.961-1.946,2.961s-1.946-.987-1.946-2.961V20.734Z"/>
    <path d="M120.112,131.114c-.13-1.314-.227-2.731-.292-4.246-.067-1.512-.097-3.387-.097-5.628v-31.594c0-5.924-.422-10.466-1.265-13.625-.845-3.16-3.148-5.332-6.911-6.516v-.395c1.816-.658,3.276-1.513,4.38-2.568,1.101-1.051,1.946-2.4,2.53-4.047.584-1.645.94-3.586,1.07-5.825.128-2.237.195-4.805.195-7.702v-28.039c0-6.976-1.752-12.012-5.256-15.106-3.504-3.091-8.827-4.639-15.963-4.639h-21.609v138.222h19.468v-61.213h1.946c1.296,0,1.946.987,1.946,2.963v40.281c0,4.477.128,7.933.389,10.367.259,2.437.712,4.97,1.362,7.602h20.052v-.395c-.521-1.579-.944-2.963-1.265-4.147-.326-1.185-.555-2.435-.682-3.751ZM100.256,57.462c0,1.974-.651,2.961-1.946,2.961h-1.946V18.956h1.946c1.296,0,1.946.988,1.946,2.962v35.543Z"/>
    <polygon points="140.941 50.551 141.135 26.855 141.525 26.855 143.083 50.551 150.091 139.407 167.417 139.407 174.425 50.551 175.788 26.855 176.177 26.855 176.372 50.551 175.204 139.407 193.698 139.407 193.698 1.186 161.966 1.186 159.824 79.971 159.046 101.89 158.656 101.89 157.683 79.971 155.348 1.186 123.615 1.186 123.615 139.407 142.109 139.407 140.941 50.551"/>
    <polygon points="0 286.602 19.468 286.602 19.468 226.574 26.282 226.574 26.282 208.802 19.468 208.802 19.468 166.151 27.255 166.151 27.255 148.38 0 148.38 0 286.602"/>
    <path d="M38.936,148.38l-10.707,138.222h19.467l1.168-32.975h5.451l1.168,32.975h21.415l-10.707-138.222h-27.254ZM49.447,235.855l1.364-41.862.584-23.893h.389l.584,23.893,1.362,41.862h-4.283Z"/>
    <path d="M100.453,147.195c-6.23,0-11.389,1.91-15.477,5.726-4.087,3.82-6.132,9.151-6.132,15.995v97.151c0,6.979,2.011,12.341,6.035,16.092,4.022,3.752,9.15,5.628,15.38,5.628s11.355-1.875,15.379-5.628c4.022-3.751,6.035-9.114,6.035-16.092v-37.912h-19.467v38.899c0,1.974-.651,2.961-1.946,2.961s-1.946-.987-1.946-2.961v-99.125c0-1.975.647-2.962,1.946-2.962s1.946.987,1.946,2.962v32.778h19.467v-31.791c0-6.976-1.98-12.341-5.938-16.093-3.96-3.751-9.052-5.628-15.281-5.628Z"/>
    <polygon points="124.59 166.151 134.324 166.151 134.324 286.602 153.792 286.602 153.792 166.151 163.526 166.151 163.526 148.38 124.59 148.38 124.59 166.151"/>
    <path d="M188.052,147.195c-6.23,0-11.389,1.91-15.477,5.726-4.087,3.82-6.132,9.151-6.132,15.995v97.151c0,6.979,2.011,12.341,6.035,16.092,4.022,3.752,9.15,5.628,15.38,5.628s11.355-1.875,15.379-5.628c4.022-3.751,6.035-9.114,6.035-16.092v-97.151c0-6.976-1.98-12.341-5.938-16.093-3.96-3.751-9.052-5.628-15.281-5.628ZM189.804,267.054c0,1.974-.651,2.961-1.946,2.961s-1.946-.987-1.946-2.961v-99.125c0-1.975.647-2.962,1.946-2.962s1.946.987,1.946,2.962v99.125Z"/>
    <path d="M256.381,278.309c-.13-1.314-.227-2.731-.292-4.246-.067-1.512-.097-3.387-.097-5.628v-31.593c0-5.924-.422-10.466-1.265-13.625-.845-3.16-3.148-5.332-6.911-6.516v-.395c1.816-.658,3.276-1.513,4.38-2.568,1.101-1.051,1.946-2.4,2.53-4.047.584-1.645.94-3.586,1.07-5.825.128-2.237.195-4.805.195-7.702v-28.039c0-6.976-1.752-12.012-5.256-15.106-3.503-3.091-8.827-4.639-15.963-4.639h-21.609v138.222h19.468v-61.213h1.946c1.296,0,1.946.987,1.946,2.963v40.281c0,4.476.128,7.932.389,10.367.259,2.437.712,4.97,1.362,7.602h20.052v-.395c-.521-1.579-.944-2.962-1.265-4.147-.326-1.185-.555-2.435-.682-3.751ZM236.524,204.656c0,1.974-.651,2.961-1.946,2.961h-1.946v-41.467h1.946c1.296,0,1.946.988,1.946,2.963v35.543Z"/>
    <polygon points="284.61 148.38 281.689 195.967 280.911 215.714 280.522 215.714 279.743 195.967 276.822 148.38 256.966 148.38 270.982 241.186 270.982 286.602 290.45 286.602 290.45 241.186 304.467 148.38 284.61 148.38"/>
  </g>
</svg>